<svg width="150" height="150" viewBox="0 0 150 150" fill="none" xmlns="http://www.w3.org/2000/svg">
<circle cx="75" cy="75" r="75" fill="#373867"/>
<path d="M114.2 75H108.6C108.16 75 107.8 75.36 107.8 75.8V107.8H42.2V42.2H74.2C74.64 42.2 75 41.84 75 41.4V35.8C75 35.36 74.64 35 74.2 35H38.2C36.43 35 35 36.43 35 38.2V111.8C35 113.57 36.43 115 38.2 115H111.8C113.57 115 115 113.57 115 111.8V75.8C115 75.36 114.64 75 114.2 75Z" fill="#49A37B"/>
<path d="M60.1431 80.5891L60.0001 89.7516C59.9926 90.4375 60.5345 91 61.2043 91H61.2344L70.1157 90.7765C70.2663 90.7688 70.4168 90.7072 70.5222 90.5993L101.825 58.619C102.058 58.3801 102.058 57.9871 101.825 57.7482L92.4695 48.1772C92.3491 48.0539 92.1986 48 92.0405 48C91.8825 48 91.7319 48.0616 91.6115 48.1772L60.3162 80.1575C60.2075 80.2739 60.1457 80.428 60.1431 80.5891ZM64.9224 82.4077L92.0405 54.7043L95.4425 58.1797L68.3094 85.8986L64.8697 85.9833L64.9224 82.4077Z" fill="#49A37B"/>
</svg>
