<svg width="150" height="150" viewBox="0 0 150 150" fill="none" xmlns="http://www.w3.org/2000/svg">
<circle cx="75" cy="75" r="75" fill="#373867"/>
<path d="M91 87C87.6667 87 84.8333 85.8333 82.5 83.5C80.1667 81.1667 79 78.3333 79 75C79 71.6667 80.1667 68.8333 82.5 66.5C84.8333 64.1667 87.6667 63 91 63C94.3333 63 97.1667 64.1667 99.5 66.5C101.833 68.8333 103 71.6667 103 75C103 78.3333 101.833 81.1667 99.5 83.5C97.1667 85.8333 94.3333 87 91 87ZM91 79C92.1333 79 93.0827 78.616 93.848 77.848C94.616 77.0827 95 76.1333 95 75C95 73.8667 94.616 72.916 93.848 72.148C93.0827 71.3827 92.1333 71 91 71C89.8667 71 88.9173 71.3827 88.152 72.148C87.384 72.916 87 73.8667 87 75C87 76.1333 87.384 77.0827 88.152 77.848C88.9173 78.616 89.8667 79 91 79ZM67 115V103.4C67 102 67.3333 100.683 68 99.448C68.6667 98.216 69.6 97.2333 70.8 96.5C72.9333 95.2333 75.1827 94.1827 77.548 93.348C79.916 92.516 82.3333 91.9 84.8 91.5L91 99L97.2 91.5C99.6667 91.9 102.067 92.516 104.4 93.348C106.733 94.1827 108.967 95.2333 111.1 96.5C112.3 97.2333 113.251 98.216 113.952 99.448C114.651 100.683 115 102 115 103.4V115H67ZM74.9 107H87.2L81.8 100.4C80.6 100.733 79.4333 101.167 78.3 101.7C77.1667 102.233 76.0333 102.8 74.9 103.4V107ZM94.8 107H107V103.4C105.933 102.733 104.833 102.151 103.7 101.652C102.567 101.151 101.4 100.733 100.2 100.4L94.8 107ZM43 107C40.8 107 38.916 106.217 37.348 104.652C35.7827 103.084 35 101.2 35 99V43C35 40.8 35.7827 38.916 37.348 37.348C38.916 35.7827 40.8 35 43 35H99C101.2 35 103.084 35.7827 104.652 37.348C106.217 38.916 107 40.8 107 43V63C105.933 61.6667 104.767 60.4 103.5 59.2C102.233 58 100.733 57.2 99 56.8V43H43V99H59.6C59.4 99.7333 59.2507 100.467 59.152 101.2C59.0507 101.933 59 102.667 59 103.4V107H43ZM51 59H79C80.7333 57.6667 82.6333 56.6667 84.7 56C86.7667 55.3333 88.8667 55 91 55V51H51V59ZM51 75H71C71 73.6 71.1507 72.2333 71.452 70.9C71.7507 69.5667 72.1667 68.2667 72.7 67H51V75ZM51 91H64.8C65.5333 90.4 66.3173 89.8667 67.152 89.4C67.984 88.9333 68.8333 88.5 69.7 88.1V83H51V91ZM43 99V43V56.7V55V99Z" fill="#49A37B"/>
</svg>
