<svg width="24" height="28" viewBox="0 0 24 28" fill="none" xmlns="http://www.w3.org/2000/svg">
<path d="M23.1429 1.75H16.7147L16.211 0.727223C16.1043 0.508608 15.9399 0.324726 15.7364 0.196255C15.5329 0.067784 15.2983 -0.000181649 15.059 6.65244e-07H8.93562C8.69752 -0.000245439 8.46414 0.0677969 8.26207 0.196373C8.06001 0.324949 7.8974 0.508887 7.79276 0.727223L7.2861 1.75H0.857143C0.629814 1.75 0.411797 1.84219 0.251051 2.00628C0.0903059 2.17038 0 2.39294 0 2.625L0 4.375C0 4.60707 0.0903059 4.82962 0.251051 4.99372C0.411797 5.15781 0.629814 5.25 0.857143 5.25H23.1429C23.3702 5.25 23.5882 5.15781 23.7489 4.99372C23.9097 4.82962 24 4.60707 24 4.375V2.625C24 2.39294 23.9097 2.17038 23.7489 2.00628C23.5882 1.84219 23.3702 1.75 23.1429 1.75ZM2.85029 25.5391C2.89118 26.2055 3.17932 26.831 3.65605 27.2882C4.13279 27.7454 4.76228 27.9999 5.41638 28H18.5836C19.2377 27.9999 19.8672 27.7454 20.3439 27.2882C20.8207 26.831 21.1088 26.2055 21.1497 25.5391L22.2857 7H1.71429L2.85029 25.5391Z" fill="white"/>
</svg>
