<svg width="21" height="24" viewBox="0 0 21 24" fill="none" xmlns="http://www.w3.org/2000/svg">
<path fill-rule="evenodd" clip-rule="evenodd" d="M0.685118 8.1929L9.87262 1.04707C10.2413 0.760352 10.7574 0.760352 11.1261 1.04707L20.3136 8.1929C20.5622 8.3863 20.7077 8.68368 20.7077 8.9987V20.2279C20.7077 21.9192 19.3366 23.2904 17.6452 23.2904H13.5618H7.43685H3.35352C1.66214 23.2904 0.291016 21.9192 0.291016 20.2279V8.9987C0.291016 8.68368 0.436457 8.3863 0.685118 8.1929ZM8.45768 21.2487H12.541V13.082H8.45768V21.2487ZM14.5827 21.2487V12.0612C14.5827 11.4974 14.1256 11.0404 13.5618 11.0404H7.43685C6.87306 11.0404 6.41602 11.4974 6.41602 12.0612V21.2487H3.35352C2.78972 21.2487 2.33268 20.7916 2.33268 20.2278V9.49795L10.4993 3.1461L18.666 9.49795V20.2278C18.666 20.7916 18.209 21.2487 17.6452 21.2487H14.5827Z" fill="#C4C4C4"/>
</svg>
