<svg width="36" height="34" viewBox="0 0 36 34" fill="none" xmlns="http://www.w3.org/2000/svg">
<path d="M10.65 0H25.35C30.95 0 35.5 4.39311 35.5 9.8V23.9931C35.5 26.5922 34.4306 29.0849 32.5271 30.9228C30.6236 32.7606 28.0419 33.7931 25.35 33.7931H10.65C5.05 33.7931 0.5 29.4 0.5 23.9931V9.8C0.5 7.20088 1.56937 4.70821 3.47287 2.87036C5.37636 1.0325 7.95805 0 10.65 0ZM10.3 3.37931C8.62914 3.37931 7.02671 4.02017 5.84523 5.16091C4.66375 6.30165 4 7.84882 4 9.46207V24.331C4 27.6935 6.8175 30.4138 10.3 30.4138H25.7C27.3709 30.4138 28.9733 29.7729 30.1548 28.6322C31.3363 27.4915 32 25.9443 32 24.331V9.46207C32 6.09966 29.1825 3.37931 25.7 3.37931H10.3ZM27.1875 5.9138C27.7677 5.9138 28.3241 6.13632 28.7343 6.53241C29.1445 6.9285 29.375 7.46571 29.375 8.02587C29.375 8.58602 29.1445 9.12323 28.7343 9.51933C28.3241 9.91541 27.7677 10.1379 27.1875 10.1379C26.6073 10.1379 26.0509 9.91541 25.6407 9.51933C25.2305 9.12323 25 8.58602 25 8.02587C25 7.46571 25.2305 6.9285 25.6407 6.53241C26.0509 6.13632 26.6073 5.9138 27.1875 5.9138ZM18 8.44828C20.3206 8.44828 22.5462 9.33836 24.1872 10.9227C25.8281 12.5071 26.75 14.6559 26.75 16.8966C26.75 19.1372 25.8281 21.286 24.1872 22.8704C22.5462 24.4548 20.3206 25.3448 18 25.3448C15.6794 25.3448 13.4538 24.4548 11.8128 22.8704C10.1719 21.286 9.25 19.1372 9.25 16.8966C9.25 14.6559 10.1719 12.5071 11.8128 10.9227C13.4538 9.33836 15.6794 8.44828 18 8.44828ZM18 11.8276C16.6076 11.8276 15.2723 12.3616 14.2877 13.3123C13.3031 14.2629 12.75 15.5522 12.75 16.8966C12.75 18.2409 13.3031 19.5302 14.2877 20.4809C15.2723 21.4315 16.6076 21.9655 18 21.9655C19.3924 21.9655 20.7277 21.4315 21.7123 20.4809C22.6969 19.5302 23.25 18.2409 23.25 16.8966C23.25 15.5522 22.6969 14.2629 21.7123 13.3123C20.7277 12.3616 19.3924 11.8276 18 11.8276Z" fill="#49A37B"/>
</svg>
