<svg width="33" height="33" viewBox="0 0 33 33" fill="none" xmlns="http://www.w3.org/2000/svg">
<path fill-rule="evenodd" clip-rule="evenodd" d="M9.625 9.625V13.75H8.25C6.78102 13.75 5.5 14.8175 5.5 16.2708V27.7292C5.5 29.1825 6.78102 30.25 8.25 30.25H24.75C26.219 30.25 27.5 29.1825 27.5 27.7292V16.2708C27.5 14.8175 26.219 13.75 24.75 13.75H23.375V9.625C23.375 5.82804 20.297 2.75 16.5 2.75C12.703 2.75 9.625 5.82804 9.625 9.625ZM20.625 9.625V13.75H12.375V9.625C12.375 7.34683 14.2218 5.5 16.5 5.5C18.7782 5.5 20.625 7.34683 20.625 9.625ZM8.25 27.5V16.5H24.75V27.5H8.25ZM17.875 22C17.875 22.7594 17.2594 23.375 16.5 23.375C15.7406 23.375 15.125 22.7594 15.125 22C15.125 21.2406 15.7406 20.625 16.5 20.625C17.2594 20.625 17.875 21.2406 17.875 22Z" fill="#FDF5F5"/>
</svg>
