<svg width="21" height="18" viewBox="0 0 21 18" fill="none" xmlns="http://www.w3.org/2000/svg">
<path fill-rule="evenodd" clip-rule="evenodd" d="M3.07508 0.75H17.9235C19.4494 0.75 20.6954 1.9886 20.7074 3.51176C20.7077 3.52471 20.7078 3.53765 20.7075 3.55058V14.6703C20.7075 16.2037 19.4568 17.4544 17.9235 17.4544H3.07508C1.54173 17.4544 0.291016 16.2037 0.291016 14.6703V3.53407C0.291016 2.00071 1.54173 0.75 3.07508 0.75ZM18.7525 3.12023C18.5991 2.81668 18.2834 2.60605 17.9234 2.60605H3.075C2.71499 2.60605 2.39941 2.8166 2.24592 3.12005L10.4993 8.89746L18.7525 3.12023ZM2.14698 5.31639L9.96716 10.7905C10.2867 11.0142 10.712 11.0142 11.0315 10.7905L18.8514 5.31662V14.6703C18.8514 15.1786 18.4317 15.5984 17.9234 15.5984H3.075C2.56671 15.5984 2.14698 15.1786 2.14698 14.6703V5.31639Z" fill="#C4C4C4"/>
<mask id="mask0_4493_801" style="mask-type:luminance" maskUnits="userSpaceOnUse" x="0" y="0" width="21" height="18">
<path fill-rule="evenodd" clip-rule="evenodd" d="M3.07508 0.75H17.9235C19.4494 0.75 20.6954 1.9886 20.7074 3.51176C20.7077 3.52471 20.7078 3.53765 20.7075 3.55058V14.6703C20.7075 16.2037 19.4568 17.4544 17.9235 17.4544H3.07508C1.54173 17.4544 0.291016 16.2037 0.291016 14.6703V3.53407C0.291016 2.00071 1.54173 0.75 3.07508 0.75ZM18.7525 3.12023C18.5991 2.81668 18.2834 2.60605 17.9234 2.60605H3.075C2.71499 2.60605 2.39941 2.8166 2.24592 3.12005L10.4993 8.89746L18.7525 3.12023ZM2.14698 5.31639L9.96716 10.7905C10.2867 11.0142 10.712 11.0142 11.0315 10.7905L18.8514 5.31662V14.6703C18.8514 15.1786 18.4317 15.5984 17.9234 15.5984H3.075C2.56671 15.5984 2.14698 15.1786 2.14698 14.6703V5.31639Z" fill="white"/>
</mask>
<g mask="url(#mask0_4493_801)">
<rect x="-0.636719" y="-2.03516" width="22.2726" height="22.2726" fill="#C4C4C4"/>
</g>
</svg>
