<svg width="150" height="150" viewBox="0 0 150 150" fill="none" xmlns="http://www.w3.org/2000/svg">
<circle cx="75" cy="75" r="75" fill="#373867"/>
<path d="M85.9875 84.3067C89.8506 84.3067 92.9858 87.7894 92.9858 92.0806L92.9818 96.354C93.4497 106.082 86.9393 111 75.2581 111C63.621 111 56.9946 106.158 56.9946 96.5228V92.0806C56.9946 87.7894 60.1298 84.3067 63.9929 84.3067H85.9875ZM85.9875 90.97H63.9929C63.7277 90.97 63.4735 91.087 63.286 91.2953C63.0985 91.5036 62.9931 91.786 62.9931 92.0806V96.5228C62.9931 101.747 66.5403 104.337 75.2581 104.337C83.928 104.337 87.2352 101.831 86.9873 96.5317V92.0806C86.9873 91.786 86.8819 91.5036 86.6944 91.2953C86.5069 91.087 86.2527 90.97 85.9875 90.97ZM41.9983 62.0956H59.498C58.9941 64.2702 58.8652 66.5311 59.1181 68.7589H41.9983C41.7331 68.7589 41.4788 68.8759 41.2914 69.0842C41.1039 69.2924 40.9985 69.5749 40.9985 69.8695V74.3117C40.9985 79.5357 44.5457 82.1255 53.2635 82.1255C55.1111 82.1255 56.7147 82.0101 58.0903 81.7835C55.8022 83.3938 54.1313 85.8875 53.3995 88.7844L53.2635 88.7889C41.6264 88.7889 35 83.9469 35 74.3117V69.8695C35 65.5783 38.1352 62.0956 41.9983 62.0956ZM107.982 62.0956C111.845 62.0956 114.98 65.5783 114.98 69.8695L114.976 74.1429C115.444 83.8713 108.934 88.7889 97.2527 88.7889L96.5769 88.78C95.8228 85.8039 94.0827 83.255 91.7061 81.6458C93.2537 81.9656 95.0933 82.1255 97.2527 82.1255C105.923 82.1255 109.23 79.6201 108.982 74.3206V69.8695C108.982 69.5749 108.877 69.2924 108.689 69.0842C108.502 68.8759 108.247 68.7589 107.982 68.7589H90.8663C91.1138 66.5306 90.9835 64.2706 90.4824 62.0956H107.982ZM74.9902 53.2111C76.5657 53.2111 78.1257 53.5558 79.5813 54.2255C81.0368 54.8953 82.3594 55.8769 83.4734 57.1144C84.5874 58.3519 85.4711 59.821 86.074 61.4379C86.6769 63.0548 86.9873 64.7877 86.9873 66.5378C86.9873 68.2879 86.6769 70.0208 86.074 71.6377C85.4711 73.2546 84.5874 74.7237 83.4734 75.9612C82.3594 77.1987 81.0368 78.1803 79.5813 78.85C78.1257 79.5198 76.5657 79.8645 74.9902 79.8645C71.8084 79.8645 68.7569 78.4604 66.507 75.9612C64.2571 73.4619 62.9931 70.0722 62.9931 66.5378C62.9931 63.0033 64.2571 59.6136 66.507 57.1144C68.7569 54.6152 71.8084 53.2111 74.9902 53.2111ZM74.9902 59.8745C74.2025 59.8745 73.4224 60.0468 72.6947 60.3817C71.9669 60.7165 71.3056 61.2073 70.7486 61.8261C70.1916 62.4448 69.7497 63.1794 69.4483 63.9878C69.1468 64.7963 68.9917 65.6627 68.9917 66.5378C68.9917 67.4128 69.1468 68.2793 69.4483 69.0877C69.7497 69.8962 70.1916 70.6307 70.7486 71.2495C71.3056 71.8682 71.9669 72.359 72.6947 72.6939C73.4224 73.0288 74.2025 73.2011 74.9902 73.2011C76.5811 73.2011 78.1069 72.4991 79.2318 71.2495C80.3567 69.9999 80.9887 68.305 80.9887 66.5378C80.9887 64.7706 80.3567 63.0757 79.2318 61.8261C78.1069 60.5765 76.5811 59.8745 74.9902 59.8745ZM52.9956 31C56.1774 31 59.2289 32.4041 61.4788 34.9033C63.7287 37.4025 64.9927 40.7922 64.9927 44.3267C64.9927 47.8611 63.7287 51.2508 61.4788 53.7501C59.2289 56.2493 56.1774 57.6533 52.9956 57.6533C49.8138 57.6533 46.7623 56.2493 44.5124 53.7501C42.2625 51.2508 40.9985 47.8611 40.9985 44.3267C40.9985 40.7922 42.2625 37.4025 44.5124 34.9033C46.7623 32.4041 49.8138 31 52.9956 31ZM96.9848 31C100.167 31 103.218 32.4041 105.468 34.9033C107.718 37.4025 108.982 40.7922 108.982 44.3267C108.982 47.8611 107.718 51.2508 105.468 53.7501C103.218 56.2493 100.167 57.6533 96.9848 57.6533C93.803 57.6533 90.7515 56.2493 88.5016 53.7501C86.2517 51.2508 84.9877 47.8611 84.9877 44.3267C84.9877 40.7922 86.2517 37.4025 88.5016 34.9033C90.7515 32.4041 93.803 31 96.9848 31ZM52.9956 37.6633C51.4047 37.6633 49.8789 38.3654 48.754 39.615C47.629 40.8646 46.9971 42.5594 46.9971 44.3267C46.9971 46.0939 47.629 47.7887 48.754 49.0384C49.8789 50.288 51.4047 50.99 52.9956 50.99C54.5865 50.99 56.1122 50.288 57.2372 49.0384C58.3621 47.7887 58.9941 46.0939 58.9941 44.3267C58.9941 42.5594 58.3621 40.8646 57.2372 39.615C56.1122 38.3654 54.5865 37.6633 52.9956 37.6633ZM96.9848 37.6633C95.3939 37.6633 93.8682 38.3654 92.7432 39.615C91.6183 40.8646 90.9863 42.5594 90.9863 44.3267C90.9863 46.0939 91.6183 47.7887 92.7432 49.0384C93.8682 50.288 95.3939 50.99 96.9848 50.99C98.5757 50.99 100.101 50.288 101.226 49.0384C102.351 47.7887 102.983 46.0939 102.983 44.3267C102.983 42.5594 102.351 40.8646 101.226 39.615C100.101 38.3654 98.5757 37.6633 96.9848 37.6633Z" fill="#49A37B"/>
</svg>
