<svg width="227" height="47" viewBox="0 0 227 47" fill="none" xmlns="http://www.w3.org/2000/svg">
<g filter="url(#filter0_d_2419_3858)">
<path d="M6.73047 1.5625H11.3789L19.1523 22.9688L26.9062 1.5625H31.5742L21.0078 30H17.2773L6.73047 1.5625ZM4.38672 1.5625H8.9375L9.75781 21.2305V30H4.38672V1.5625ZM29.3477 1.5625H33.918V30H28.5469V21.2305L29.3477 1.5625ZM48.4883 30.3906C46.8867 30.3906 45.4479 30.1302 44.1719 29.6094C42.8958 29.0885 41.8086 28.3659 40.9102 27.4414C40.0247 26.5039 39.3411 25.4167 38.8594 24.1797C38.3906 22.9297 38.1562 21.5885 38.1562 20.1562V19.375C38.1562 17.7474 38.3906 16.2695 38.8594 14.9414C39.3281 13.6003 39.9922 12.4479 40.8516 11.4844C41.7109 10.5208 42.7396 9.77865 43.9375 9.25781C45.1354 8.73698 46.457 8.47656 47.9023 8.47656C49.3997 8.47656 50.7214 8.73047 51.8672 9.23828C53.013 9.73307 53.9701 10.4362 54.7383 11.3477C55.5065 12.2591 56.0859 13.3529 56.4766 14.6289C56.8672 15.8919 57.0625 17.2917 57.0625 18.8281V20.9961H40.5V17.4414H51.9844V17.0508C51.9583 16.2305 51.8021 15.4818 51.5156 14.8047C51.2292 14.1146 50.7865 13.5677 50.1875 13.1641C49.5885 12.7474 48.8138 12.5391 47.8633 12.5391C47.0951 12.5391 46.4245 12.7083 45.8516 13.0469C45.2917 13.3724 44.8229 13.8411 44.4453 14.4531C44.0807 15.0521 43.8073 15.7682 43.625 16.6016C43.4427 17.4349 43.3516 18.3594 43.3516 19.375V20.1562C43.3516 21.0417 43.4688 21.862 43.7031 22.6172C43.9505 23.3724 44.3086 24.0299 44.7773 24.5898C45.2591 25.1367 45.832 25.5664 46.4961 25.8789C47.1732 26.1784 47.9414 26.3281 48.8008 26.3281C49.8815 26.3281 50.8581 26.1198 51.7305 25.7031C52.6159 25.2734 53.3841 24.6419 54.0352 23.8086L56.6328 26.5039C56.1901 27.1549 55.5911 27.7799 54.8359 28.3789C54.0938 28.9779 53.1953 29.4661 52.1406 29.8438C51.0859 30.2083 49.8685 30.3906 48.4883 30.3906ZM73.957 8.86719H78.6445V29.3555C78.6445 31.2695 78.2279 32.8906 77.3945 34.2188C76.5742 35.5599 75.4219 36.5755 73.9375 37.2656C72.4531 37.9688 70.7279 38.3203 68.7617 38.3203C67.9154 38.3203 66.9974 38.2031 66.0078 37.9688C65.0312 37.7344 64.0872 37.3633 63.1758 36.8555C62.2773 36.3607 61.5286 35.7161 60.9297 34.9219L63.2539 31.875C63.957 32.6953 64.7513 33.3138 65.6367 33.7305C66.5221 34.1602 67.4792 34.375 68.5078 34.375C69.5495 34.375 70.4349 34.1797 71.1641 33.7891C71.9062 33.4115 72.4727 32.8516 72.8633 32.1094C73.2669 31.3802 73.4688 30.4818 73.4688 29.4141V13.6914L73.957 8.86719ZM59.6797 19.6875V19.2773C59.6797 17.6628 59.875 16.1979 60.2656 14.8828C60.6562 13.5547 61.2161 12.4154 61.9453 11.4648C62.6875 10.5143 63.5794 9.77865 64.6211 9.25781C65.6758 8.73698 66.8607 8.47656 68.1758 8.47656C69.569 8.47656 70.7409 8.73047 71.6914 9.23828C72.6549 9.74609 73.4492 10.4688 74.0742 11.4062C74.7122 12.3438 75.207 13.457 75.5586 14.7461C75.9232 16.0221 76.2031 17.4284 76.3984 18.9648V20.0781C76.2161 21.5755 75.9232 22.9492 75.5195 24.1992C75.1289 25.4492 74.6081 26.543 73.957 27.4805C73.306 28.4049 72.4987 29.1211 71.5352 29.6289C70.5716 30.1367 69.4388 30.3906 68.1367 30.3906C66.8346 30.3906 65.6628 30.1237 64.6211 29.5898C63.5794 29.056 62.6875 28.3073 61.9453 27.3438C61.2161 26.3802 60.6562 25.2474 60.2656 23.9453C59.875 22.6432 59.6797 21.224 59.6797 19.6875ZM64.8359 19.2773V19.6875C64.8359 20.599 64.9271 21.4518 65.1094 22.2461C65.2917 23.0404 65.5716 23.7435 65.9492 24.3555C66.3268 24.9544 66.8021 25.4232 67.375 25.7617C67.9479 26.1003 68.6315 26.2695 69.4258 26.2695C70.4935 26.2695 71.3659 26.0482 72.043 25.6055C72.7331 25.1497 73.2539 24.5312 73.6055 23.75C73.9701 22.9557 74.2044 22.0638 74.3086 21.0742V18.0078C74.2435 17.2266 74.1003 16.5039 73.8789 15.8398C73.6706 15.1758 73.3776 14.6029 73 14.1211C72.6224 13.6393 72.1406 13.2617 71.5547 12.9883C70.9688 12.7148 70.2721 12.5781 69.4648 12.5781C68.6836 12.5781 68 12.7539 67.4141 13.1055C66.8281 13.444 66.3464 13.9193 65.9688 14.5312C65.5911 15.1432 65.3047 15.8529 65.1094 16.6602C64.9271 17.4674 64.8359 18.3398 64.8359 19.2773ZM94.9336 25.5078V15.7617C94.9336 15.0456 94.8099 14.4271 94.5625 13.9062C94.3151 13.3854 93.9375 12.9818 93.4297 12.6953C92.9219 12.4089 92.2773 12.2656 91.4961 12.2656C90.806 12.2656 90.2005 12.3828 89.6797 12.6172C89.1719 12.8516 88.7812 13.1836 88.5078 13.6133C88.2344 14.0299 88.0977 14.5117 88.0977 15.0586H82.9219C82.9219 14.1862 83.1302 13.3594 83.5469 12.5781C83.9635 11.7839 84.556 11.0807 85.3242 10.4688C86.1055 9.84375 87.0365 9.35547 88.1172 9.00391C89.2109 8.65234 90.4349 8.47656 91.7891 8.47656C93.3906 8.47656 94.8164 8.75 96.0664 9.29688C97.3294 9.83073 98.319 10.638 99.0352 11.7188C99.7643 12.7995 100.129 14.1602 100.129 15.8008V25.0195C100.129 26.0742 100.194 26.9792 100.324 27.7344C100.467 28.4766 100.676 29.1211 100.949 29.668V30H95.6953C95.4479 29.4661 95.2591 28.7891 95.1289 27.9688C94.9987 27.1354 94.9336 26.3151 94.9336 25.5078ZM95.6562 17.1289L95.6953 20.1953H92.4336C91.6263 20.1953 90.9167 20.2799 90.3047 20.4492C89.6927 20.6055 89.1914 20.8398 88.8008 21.1523C88.4102 21.4518 88.1172 21.8164 87.9219 22.2461C87.7266 22.6628 87.6289 23.138 87.6289 23.6719C87.6289 24.1927 87.7461 24.6615 87.9805 25.0781C88.2279 25.4948 88.5794 25.8268 89.0352 26.0742C89.5039 26.3086 90.0508 26.4258 90.6758 26.4258C91.5872 26.4258 92.3815 26.2435 93.0586 25.8789C93.7357 25.5013 94.263 25.0456 94.6406 24.5117C95.0182 23.9779 95.2201 23.4701 95.2461 22.9883L96.7305 25.2148C96.5482 25.7487 96.2747 26.3151 95.9102 26.9141C95.5456 27.513 95.0768 28.0729 94.5039 28.5938C93.931 29.1146 93.2409 29.5443 92.4336 29.8828C91.6263 30.2214 90.6888 30.3906 89.6211 30.3906C88.2539 30.3906 87.0299 30.1172 85.9492 29.5703C84.8685 29.0234 84.0156 28.2747 83.3906 27.3242C82.7656 26.3737 82.4531 25.293 82.4531 24.082C82.4531 22.9622 82.6615 21.9727 83.0781 21.1133C83.4948 20.2539 84.1133 19.5312 84.9336 18.9453C85.7539 18.3464 86.7695 17.8971 87.9805 17.5977C89.2044 17.2852 90.6042 17.1289 92.1797 17.1289H95.6562Z" fill="#46A37C"/>
<path d="M106.008 1.5625H115.246C117.212 1.5625 118.918 1.88151 120.363 2.51953C121.809 3.15755 122.922 4.10156 123.703 5.35156C124.497 6.58854 124.895 8.11198 124.895 9.92188C124.895 11.263 124.608 12.4805 124.035 13.5742C123.475 14.668 122.701 15.5859 121.711 16.3281C120.721 17.0573 119.576 17.5586 118.273 17.832L117.434 18.1445H107.57L107.531 16.0938H115.793C117.277 16.0938 118.514 15.8073 119.504 15.2344C120.493 14.6615 121.236 13.9062 121.73 12.9688C122.238 12.0182 122.492 11.0026 122.492 9.92188C122.492 8.63281 122.212 7.51953 121.652 6.58203C121.105 5.63151 120.292 4.90234 119.211 4.39453C118.13 3.88672 116.809 3.63281 115.246 3.63281H108.41V30H106.008V1.5625ZM123.566 30L116.203 17.2852L118.781 17.2656L126.125 29.7461V30H123.566ZM129.66 19.7656V19.1211C129.66 17.5846 129.882 16.1654 130.324 14.8633C130.767 13.5612 131.398 12.4349 132.219 11.4844C133.052 10.5339 134.048 9.79818 135.207 9.27734C136.366 8.74349 137.655 8.47656 139.074 8.47656C140.507 8.47656 141.802 8.74349 142.961 9.27734C144.12 9.79818 145.116 10.5339 145.949 11.4844C146.783 12.4349 147.421 13.5612 147.863 14.8633C148.306 16.1654 148.527 17.5846 148.527 19.1211V19.7656C148.527 21.3021 148.306 22.7214 147.863 24.0234C147.421 25.3125 146.783 26.4323 145.949 27.3828C145.129 28.3333 144.139 29.0755 142.98 29.6094C141.822 30.1302 140.533 30.3906 139.113 30.3906C137.681 30.3906 136.385 30.1302 135.227 29.6094C134.068 29.0755 133.072 28.3333 132.238 27.3828C131.405 26.4323 130.767 25.3125 130.324 24.0234C129.882 22.7214 129.66 21.3021 129.66 19.7656ZM131.984 19.1211V19.7656C131.984 20.9245 132.141 22.0247 132.453 23.0664C132.766 24.0951 133.221 25.013 133.82 25.8203C134.419 26.6146 135.161 27.2396 136.047 27.6953C136.932 28.151 137.954 28.3789 139.113 28.3789C140.259 28.3789 141.268 28.151 142.141 27.6953C143.026 27.2396 143.768 26.6146 144.367 25.8203C144.966 25.013 145.415 24.0951 145.715 23.0664C146.027 22.0247 146.184 20.9245 146.184 19.7656V19.1211C146.184 17.9753 146.027 16.888 145.715 15.8594C145.415 14.8307 144.96 13.9128 144.348 13.1055C143.749 12.2982 143.007 11.6602 142.121 11.1914C141.236 10.7227 140.22 10.4883 139.074 10.4883C137.928 10.4883 136.913 10.7227 136.027 11.1914C135.155 11.6602 134.413 12.2982 133.801 13.1055C133.202 13.9128 132.746 14.8307 132.434 15.8594C132.134 16.888 131.984 17.9753 131.984 19.1211ZM161.164 28.3789C162.154 28.3789 163.078 28.1966 163.938 27.832C164.81 27.4544 165.526 26.901 166.086 26.1719C166.659 25.4297 166.984 24.5247 167.062 23.457H169.289C169.224 24.7982 168.814 25.9961 168.059 27.0508C167.316 28.0924 166.34 28.9128 165.129 29.5117C163.931 30.0977 162.609 30.3906 161.164 30.3906C159.693 30.3906 158.391 30.1237 157.258 29.5898C156.138 29.056 155.201 28.3138 154.445 27.3633C153.69 26.3997 153.117 25.2799 152.727 24.0039C152.349 22.7148 152.16 21.3281 152.16 19.8438V19.0234C152.16 17.5391 152.349 16.1589 152.727 14.8828C153.117 13.5938 153.69 12.474 154.445 11.5234C155.201 10.5599 156.138 9.8112 157.258 9.27734C158.378 8.74349 159.673 8.47656 161.145 8.47656C162.655 8.47656 164.009 8.78255 165.207 9.39453C166.418 10.0065 167.382 10.8724 168.098 11.9922C168.827 13.112 169.224 14.4401 169.289 15.9766H167.062C166.997 14.8438 166.698 13.8672 166.164 13.0469C165.63 12.2266 164.927 11.5951 164.055 11.1523C163.182 10.7096 162.212 10.4883 161.145 10.4883C159.947 10.4883 158.924 10.7227 158.078 11.1914C157.232 11.6471 156.542 12.2786 156.008 13.0859C155.487 13.8802 155.103 14.7917 154.855 15.8203C154.608 16.8359 154.484 17.9036 154.484 19.0234V19.8438C154.484 20.9766 154.602 22.0573 154.836 23.0859C155.083 24.1016 155.467 25.0065 155.988 25.8008C156.522 26.5951 157.212 27.2266 158.059 27.6953C158.918 28.151 159.953 28.3789 161.164 28.3789ZM176.32 0V30H173.996V0H176.32ZM189.582 8.86719L179.699 18.6719L175.5 22.7344L175.148 20.4492L178.527 16.7969L186.633 8.86719H189.582ZM187.551 30L178.723 19.0234L180.012 17.0117L190.363 30H187.551ZM201.379 30.3906C199.999 30.3906 198.729 30.1367 197.57 29.6289C196.424 29.1211 195.422 28.4049 194.562 27.4805C193.716 26.556 193.059 25.4622 192.59 24.1992C192.134 22.9232 191.906 21.5299 191.906 20.0195V19.1797C191.906 17.5521 192.147 16.0807 192.629 14.7656C193.111 13.4505 193.775 12.3242 194.621 11.3867C195.467 10.4492 196.431 9.73307 197.512 9.23828C198.605 8.73047 199.751 8.47656 200.949 8.47656C202.29 8.47656 203.482 8.71745 204.523 9.19922C205.565 9.66797 206.438 10.3385 207.141 11.2109C207.857 12.0703 208.397 13.0924 208.762 14.2773C209.126 15.4492 209.309 16.7448 209.309 18.1641V19.5898H193.312V17.5977H206.984V17.3242C206.958 16.1393 206.717 15.0326 206.262 14.0039C205.819 12.9622 205.155 12.1159 204.27 11.4648C203.384 10.8138 202.277 10.4883 200.949 10.4883C199.96 10.4883 199.048 10.6966 198.215 11.1133C197.395 11.5299 196.685 12.1289 196.086 12.9102C195.5 13.6784 195.044 14.5964 194.719 15.6641C194.406 16.7188 194.25 17.8906 194.25 19.1797V20.0195C194.25 21.1914 194.419 22.2852 194.758 23.3008C195.109 24.3034 195.604 25.1888 196.242 25.957C196.893 26.7253 197.661 27.3242 198.547 27.7539C199.432 28.1836 200.409 28.3984 201.477 28.3984C202.727 28.3984 203.833 28.1706 204.797 27.7148C205.76 27.2461 206.626 26.5104 207.395 25.5078L208.859 26.6406C208.404 27.3177 207.831 27.9427 207.141 28.5156C206.464 29.0885 205.65 29.5443 204.699 29.8828C203.749 30.2214 202.642 30.3906 201.379 30.3906ZM221.906 8.86719V10.7812H211.32V8.86719H221.906ZM215.207 3.4375H217.531V24.8633C217.531 25.8398 217.661 26.5755 217.922 27.0703C218.182 27.5651 218.521 27.8971 218.938 28.0664C219.354 28.2357 219.803 28.3203 220.285 28.3203C220.637 28.3203 220.975 28.3008 221.301 28.2617C221.626 28.2096 221.919 28.1576 222.18 28.1055L222.277 30.0781C221.991 30.1693 221.62 30.2409 221.164 30.293C220.708 30.3581 220.253 30.3906 219.797 30.3906C218.898 30.3906 218.104 30.2279 217.414 29.9023C216.724 29.5638 216.184 28.9909 215.793 28.1836C215.402 27.3633 215.207 26.25 215.207 24.8438V3.4375Z" fill="#AACF9B"/>
</g>
<defs>
<filter id="filter0_d_2419_3858" x="0.386719" y="0" width="225.891" height="46.3203" filterUnits="userSpaceOnUse" color-interpolation-filters="sRGB">
<feFlood flood-opacity="0" result="BackgroundImageFix"/>
<feColorMatrix in="SourceAlpha" type="matrix" values="0 0 0 0 0 0 0 0 0 0 0 0 0 0 0 0 0 0 127 0" result="hardAlpha"/>
<feOffset dy="4"/>
<feGaussianBlur stdDeviation="2"/>
<feComposite in2="hardAlpha" operator="out"/>
<feColorMatrix type="matrix" values="0 0 0 0 0 0 0 0 0 0 0 0 0 0 0 0 0 0 0.25 0"/>
<feBlend mode="normal" in2="BackgroundImageFix" result="effect1_dropShadow_2419_3858"/>
<feBlend mode="normal" in="SourceGraphic" in2="effect1_dropShadow_2419_3858" result="shape"/>
</filter>
</defs>
</svg>
