<svg width="36" height="31" viewBox="0 0 36 31" fill="none" xmlns="http://www.w3.org/2000/svg">
<path d="M17.7547 24C19.6341 24 21.2301 23.173 22.5426 21.5191C23.8551 19.8652 24.5114 17.8569 24.5114 15.4941C24.5114 13.1314 23.8535 11.125 22.5379 9.475C21.2223 7.825 19.6248 7 17.7453 7C15.8659 7 14.2699 7.82697 12.9574 9.4809C11.6449 11.1348 10.9886 13.1431 10.9886 15.5059C10.9886 17.8686 11.6465 19.875 12.9621 21.525C14.2777 23.175 15.8752 24 17.7547 24ZM17.7407 21.1C16.5007 21.1 15.4498 20.5544 14.5881 19.4633C13.7263 18.3721 13.2955 17.0471 13.2955 15.4883C13.2955 13.9294 13.7294 12.6083 14.5974 11.525C15.4654 10.4417 16.5194 9.9 17.7593 9.9C18.9993 9.9 20.0502 10.4456 20.9119 11.5367C21.7737 12.6279 22.2045 13.9529 22.2045 15.5117C22.2045 17.0706 21.7706 18.3917 20.9026 19.475C20.0346 20.5583 18.9806 21.1 17.7407 21.1ZM17.75 30.5C13.8788 30.5 10.3788 29.1167 7.25 26.35C4.12121 23.5833 1.78788 19.9667 0.25 15.5C1.78788 11.0333 4.12121 7.41667 7.25 4.65C10.3788 1.88333 13.8788 0.5 17.75 0.5C21.6212 0.5 25.1212 1.88333 28.25 4.65C31.3788 7.41667 33.7121 11.0333 35.25 15.5C33.7121 19.9667 31.3788 23.5833 28.25 26.35C25.1212 29.1167 21.6212 30.5 17.75 30.5ZM17.7433 27.5C20.9561 27.5 23.9081 26.4083 26.5994 24.225C29.2907 22.0417 31.339 19.1333 32.7443 15.5C31.339 11.8667 29.293 8.95833 26.6062 6.775C23.9193 4.59167 20.9695 3.5 17.7567 3.5C14.5439 3.5 11.5919 4.59167 8.90057 6.775C6.20928 8.95833 4.14773 11.8667 2.71591 15.5C4.14773 19.1333 6.20704 22.0417 8.89385 24.225C11.5807 26.4083 14.5305 27.5 17.7433 27.5Z" fill="#49A37B"/>
</svg>
