<svg width="20" height="20" viewBox="0 0 20 20" fill="none" xmlns="http://www.w3.org/2000/svg">
<path d="M10 11.0803V1.10803C10 0.794091 10.1067 0.530748 10.32 0.318006C10.5326 0.106002 10.7963 0 11.1111 0H18.8889C19.2037 0 19.4674 0.106002 19.68 0.318006C19.8933 0.530748 20 0.794091 20 1.10803V6.6482C20 6.96214 19.8933 7.22512 19.68 7.43712C19.4674 7.64986 19.2037 7.75623 18.8889 7.75623H13.3333L10 11.0803ZM12.2222 5.54017H17.7778V2.21607H12.2222V5.54017ZM18.8333 20C16.4444 20 14.1159 19.4689 11.8478 18.4066C9.57889 17.3452 7.56963 15.9416 5.82 14.1961C4.06963 12.4513 2.66222 10.4476 1.59778 8.18504C0.532593 5.92318 0 3.60111 0 1.21884C0 0.886427 0.111111 0.609418 0.333333 0.387812C0.555556 0.166205 0.833334 0.0554016 1.16667 0.0554016H5.66667C5.92593 0.0554016 6.15741 0.138504 6.36111 0.304709C6.56482 0.470914 6.68519 0.683287 6.72222 0.941828L7.44444 4.81995C7.48148 5.07849 7.47704 5.31376 7.43111 5.52576C7.38444 5.7385 7.27778 5.92798 7.11111 6.09418L4.41667 8.80886C5.19444 10.1385 6.17148 11.385 7.34778 12.5485C8.52333 13.7119 9.81482 14.7184 11.2222 15.5679L13.8333 12.964C14 12.7978 14.2178 12.6729 14.4867 12.5895C14.7548 12.5067 15.0185 12.4838 15.2778 12.5208L19.1111 13.2964C19.3704 13.3518 19.5833 13.4763 19.75 13.6698C19.9167 13.8641 20 14.0905 20 14.349V18.8366C20 19.169 19.8889 19.446 19.6667 19.6676C19.4444 19.8892 19.1667 20 18.8333 20ZM3.36111 6.7036L5.19445 4.87535L4.72222 2.27147H2.25C2.34259 3.02862 2.47222 3.77655 2.63889 4.51524C2.80556 5.25392 3.0463 5.98338 3.36111 6.7036ZM13.3056 16.6205C14.0278 16.9344 14.7641 17.1838 15.5144 17.3684C16.2641 17.5531 17.0185 17.6731 17.7778 17.7285V15.2909L15.1667 14.7645L13.3056 16.6205Z" fill="#C4C4C4"/>
</svg>
