<?xml version="1.0" encoding="UTF-8"?>
<svg id="Capa_1" data-name="Capa 1" xmlns="http://www.w3.org/2000/svg" viewBox="0 0 241.65 376.51">
  <defs>
    <style>
      .cls-1 {
        fill: #2fac66;
      }

      .cls-1, .cls-2 {
        stroke: #49a37b;
        stroke-miterlimit: 10;
        stroke-width: 3px;
      }

      .cls-2 {
        fill: none;
      }

      .cls-3 {
        fill: #49a37b;
      }
    </style>
  </defs>
  <g>
    <path class="cls-2" d="m69.81,192.97S61.86,35.02,166.6,1.58c.42.14,60.47,75.83-35.34,211.79-7.73-2.02-61.44-20.39-61.44-20.39Z"/>
    <path class="cls-2" d="m140.41,200.7l-70.62-23.44,70.62,23.44Z"/>
    <path class="cls-2" d="m131.94,19.74l49.24,16.34-49.24-16.34Z"/>
    <path class="cls-2" d="m78.15,112.76s-40.96,16.08-52.25,89.04c-.12.77.94,1.12,1.3.43,6.61-12.65,28.69-50.43,44.56-46.58"/>
    <path class="cls-2" d="m86.34,198.7s-17.09,17.85-2.27,45.96c.27.51.9.74,1.46.58,4.83-1.34,25.27-8.79,28.21-37.45,1.25.41-27.4-9.09-27.4-9.09Z"/>
    <path class="cls-2" d="m170.52,141.17s25.15,37.92-9.08,102.98c-.4.75-1.55.38-1.41-.46,2.29-14.46,6.97-57.27-7.92-63.62"/>
  </g>
  <path class="cls-2" d="m128.28,113.12s-13.86-2.63-25.83,79.46c-.02.11.12.17.18.08,3.4-5.33,39.06-76.99,25.65-79.54Z"/>
  <path class="cls-1" d="m152.18,47.13c-10.67-3.54-22.19,2.24-25.73,12.91s2.24,22.19,12.91,25.73,22.19-2.24,25.73-12.91c3.54-10.67-2.24-22.19-12.91-25.73Zm7.1,24.02c-2.49,7.5-10.58,11.56-18.08,9.07-7.5-2.49-11.56-10.58-9.07-18.08,2.49-7.5,10.58-11.56,18.08-9.07,7.5,2.49,11.56,10.58,9.07,18.08Z"/>
  <path class="cls-3" d="m64.22,246.79c-16.37,22.86-28.84,48.4-37.81,75-1.36,3.8-2.41,7.69-3.76,11.51.34-1.99.7-3.98,1.08-5.97,5.78-28.86,20.1-59.13,40.49-80.54h0Z"/>
  <path class="cls-3" d="m77.38,252.65c-8.72,22.73-17.33,45.49-24.57,68.71-5.55,17.95-10.59,36.41-12.67,55.15.11-38.49,19.8-89.52,37.24-123.86h0Z"/>
  <path class="cls-3" d="m91.66,262.9c-8.22,29.58-16.87,59.5-17.38,90.41-3.98-28.68,5.68-64.2,17.38-90.41h0Z"/>
  <path class="cls-3" d="m43.94,50.71c5.53-1.6,9.1-6.27,12.13-10.87,3.8-5.76,7.4-11.65,10.82-17.64l-3.43-1.44c-.78,3.3-1.34,6.64-1.67,10.01-.31,3.16-.61,6.5.05,9.64,1.23,5.82,6.72,8.45,11.74,10.45l-.45-3.43c-11.9,5.02-20.87,16.31-23.13,29.02l3.68.5c-.41-3.26-.63-6.54-.63-9.83s.42-6.3.22-9.43c-.18-2.76-.95-5.17-2.79-7.26-1.69-1.92-4.03-3.39-6.62-3.53-2.41-.13-2.4,3.62,0,3.75,1.78.1,3.48,1.65,4.45,3.04,1.34,1.93,1.31,4.41,1.23,6.67-.2,5.58-.29,11.03.4,16.59.12.93.62,1.72,1.63,1.84.85.1,1.89-.41,2.06-1.34,2.11-11.89,10.29-22.08,21.41-26.78,1.67-.71.84-2.91-.45-3.43-4.1-1.63-8.63-3.69-9.25-8.59-.34-2.65-.03-5.47.24-8.12.3-2.96.82-5.89,1.51-8.78.48-2.03-2.34-3.34-3.43-1.44-3.19,5.59-6.54,11.09-10.06,16.48-2.67,4.09-5.67,8.86-10.65,10.3-2.31.67-1.33,4.29,1,3.62h0Z"/>
  <path class="cls-3" d="m209.4,72.27c4.82-2.26,6.68-7.88,8.28-12.54,2.23-6.5,3.65-13.23,4.31-20.07h-3.75c.89,6.72,1.79,13.89,5.7,19.63,1.7,2.49,3.88,4.69,6.48,6.23,1.29.77,2.71,1.38,4.17,1.75.7.18,1.41.29,2.12.37.37.04.73.07,1.11.08.19,0,.37,0,.56,0,.47.06.4-.06-.23-.36l-.26-.95c.09-.29.06-.32-.1-.1-.14.14-.28.29-.42.43-.28.29-.56.59-.83.89-.5.55-.98,1.11-1.45,1.69-.95,1.17-1.85,2.38-2.69,3.63-1.7,2.55-3.09,5.28-4.24,8.11-2.29,5.64-3.39,11.77-3.22,17.86l3.68-.5c-3.16-11.33-9.78-21.61-18.85-29.11-1.85-1.53-4.51,1.11-2.65,2.65,8.6,7.11,14.88,16.7,17.89,27.45.56,2,3.74,1.65,3.68-.5-.26-9.54,2.84-19.15,8.79-26.64.71-.9,1.46-1.76,2.25-2.59s1.86-1.7,1.91-2.98c.12-2.95-3.04-2.54-4.98-2.83-4.3-.65-7.91-3.82-10.09-7.44-3.03-5.02-3.82-11.07-4.58-16.79-.31-2.37-3.51-2.45-3.75,0-.6,6.2-1.91,12.33-3.9,18.24-1.33,3.98-2.71,9.2-6.84,11.13-2.18,1.02-.28,4.26,1.89,3.24h0Z"/>
  <path class="cls-3" d="m133.05,246.79c1.14,10.56-5.35,21.42-15.43,25.03-1.74.63-1.81,3.01,0,3.62,4.84,1.61,8.33,5.33,10.26,9.99,1.57,3.79,2.15,7.59,2.39,11.45.07,1.05-.1,2.54.46,3.48.92,1.55,3.58.96,3.49-.95-.21-4.74,1.89-9.62,3.98-13.78,1-2,2.16-3.61,4.12-4.77,2.08-1.23,4.44-1.85,6.77-2.42,1.71-.42,1.66-2.53.45-3.43-8.58-6.37-11.56-18.14-12.74-28.23-.12-1.01-.78-1.88-1.88-1.88-.92,0-1.99.86-1.88,1.88,1.35,11.61,4.78,24.18,14.59,31.47l.45-3.43c-2.63.65-5.31,1.41-7.66,2.8s-4.07,3.37-5.31,5.8c-2.45,4.8-4.89,10.47-4.64,15.98l3.49-.95c.21.35.22.55.15.32-.05-.17.03.59.04.28,0-.18-.03-.38-.04-.56-.04-.59-.06-1.19-.1-1.78-.13-1.98-.35-3.95-.71-5.9-.9-4.99-2.82-9.94-6.29-13.71-2.29-2.49-5.21-4.24-8.4-5.3v3.62c11.55-4.14,19.51-16.36,18.19-28.65-.11-1.01-.78-1.88-1.88-1.88-.93,0-1.98.86-1.88,1.88h0Z"/>
  <path class="cls-3" d="m3.73,256.63c2.73-2.69,5.75-5.15,8.07-8.23,2.51-3.34,3.71-7.39,4.29-11.48.55-3.86.71-7.76.73-11.66.01-2.41-3.72-2.41-3.75,0-.09,6.3.62,12.78,3.49,18.48s7.77,9.57,13.54,11.99v-3.62c-2.91.97-5.72,2.02-7.53,4.63-1.04,1.49-1.62,3.28-2.23,4.98-.56,1.52-1.1,3.05-1.57,4.61s-.78,3.06-1.15,4.6c-.89,3.75-2.13,7.45-3.21,11.16h3.62c-1.46-10.62-3.88-23.31-14.67-28.4-2.17-1.02-4.08,2.21-1.89,3.24,9.85,4.64,11.63,16.53,12.95,26.16.27,1.93,3.14,1.63,3.62,0,1.05-3.61,2.23-7.22,3.14-10.87.34-1.35.58-2.71.97-4.05.81-2.85,1.69-5.95,3.09-8.56,1.25-2.33,3.5-3.08,5.88-3.87,1.88-.63,1.67-2.92,0-3.62-4.99-2.09-9.06-5.66-11.44-10.54s-2.92-10.81-2.84-16.31h-3.75c-.03,5.48-.11,11.27-1.94,16.51-1.07,3.06-2.9,5.36-5.29,7.68-1.57,1.53-3.2,2.99-4.76,4.53-1.72,1.7.93,4.35,2.65,2.65h0Z"/>
</svg>