<?xml version="1.0" encoding="UTF-8"?>
<svg id="Capa_1" data-name="Capa 1" xmlns="http://www.w3.org/2000/svg" viewBox="0 0 150.13 260.02">
  <defs>
    <style>
      .cls-1 {
        fill: #2fac66;
      }

      .cls-1, .cls-2 {
        stroke: #49a37b;
        stroke-miterlimit: 10;
        stroke-width: 3px;
      }

      .cls-2 {
        fill: none;
      }
    </style>
  </defs>
  <g>
    <path class="cls-2" d="m43.15,213.89S-15.34,66.95,73,1.5c.44,0,81.7,52.27,34.88,211.86-7.97.58-64.73.52-64.73.52Z"/>
    <path class="cls-2" d="m112.47,198.42l-74.4.6,74.4-.6Z"/>
    <path class="cls-2" d="m46.06,29.87l51.88-.42-51.88.42Z"/>
    <path class="cls-2" d="m25.16,135.27s-33.58,28.43-20.73,101.14c.14.77,1.25.76,1.37-.02,2.18-14.11,10.89-56.99,27.15-58.46"/>
    <path class="cls-2" d="m60.65,213.98s-10.41,22.41,12.68,44.23c.42.4,1.09.41,1.57.08,4.15-2.82,21.08-16.47,14.62-44.55,1.31-.01-28.87.23-28.87.23Z"/>
    <path class="cls-2" d="m121.76,132.36s36.04,27.77,24.64,100.4c-.13.84-1.34.86-1.48.02-2.5-14.43-11.88-56.46-28.03-57.66"/>
  </g>
  <path class="cls-2" d="m72.72,119.44s-13.97,1.99,1.19,83.54c.02.11.17.12.2.01,1.5-6.14,12.13-85.48-1.39-83.56Z"/>
  <path class="cls-1" d="m74.06,49.27c-11.24.09-20.28,9.28-20.19,20.52.09,11.24,9.28,20.28,20.52,20.19,11.24-.09,20.28-9.28,20.19-20.52-.09-11.24-9.28-20.28-20.52-20.19Zm14.47,20.45c.06,7.9-6.29,14.35-14.19,14.42-7.9.06-14.35-6.29-14.42-14.19-.06-7.9,6.29-14.35,14.19-14.42,7.9-.06,14.35,6.29,14.42,14.19Z"/>
</svg>