<?xml version="1.0" encoding="UTF-8"?>
<svg id="Capa_1" data-name="Capa 1" xmlns="http://www.w3.org/2000/svg" viewBox="0 0 292.87 396.26">
  <defs>
    <style>
      .cls-1 {
        fill: #2fac66;
      }

      .cls-1, .cls-2 {
        stroke: #49a37b;
        stroke-miterlimit: 10;
        stroke-width: 3px;
      }

      .cls-2 {
        fill: none;
      }

      .cls-3 {
        fill: #49a37b;
      }
    </style>
  </defs>
  <g>
    <path class="cls-2" d="m150.34,169.78S174.06,13.42,283.37,1.54c.38.22,44.13,86.37-76.88,200.48-7.17-3.52-56.14-32.24-56.14-32.24Z"/>
    <path class="cls-2" d="m217.98,191.44l-64.52-37.05,64.52,37.05Z"/>
    <path class="cls-2" d="m245.78,12.43l44.99,25.84-44.99-25.84Z"/>
    <path class="cls-2" d="m174.52,92.84s-43.35,7.58-68.97,76.83c-.27.73.69,1.28,1.19.68,9.01-11.08,38.18-43.69,52.95-36.75"/>
    <path class="cls-2" d="m165.4,178.7s-20.3,14.08-11.39,44.58c.16.56.73.9,1.31.86,5-.34,26.51-3.57,35.12-31.06,1.14.65-25.03-14.38-25.03-14.38Z"/>
    <path class="cls-2" d="m259.37,139.12s17.08,42.18-29.44,99.1c-.54.66-1.59.07-1.29-.73,5.13-13.72,18.26-54.73,4.93-63.92"/>
  </g>
  <path class="cls-2" d="m223.57,103.2s-13.06-5.34-41.16,72.71c-.04.1.09.19.16.11,4.4-4.54,53.64-67.65,41-72.82Z"/>
  <path class="cls-1" d="m260.15,43.31c-9.75-5.6-22.19-2.23-27.79,7.52s-2.23,22.19,7.52,27.79,22.19,2.23,27.79-7.52c5.6-9.75,2.23-22.19-7.52-27.79Zm2.16,24.96c-3.93,6.85-12.68,9.21-19.53,5.28-6.85-3.93-9.21-12.68-5.28-19.53,3.93-6.85,12.68-9.21,19.53-5.28,6.85,3.93,9.21,12.68,5.28,19.53Z"/>
  <path class="cls-3" d="m134.13,221.4c-20.6,19.14-37.92,41.68-52.01,65.95-2.1,3.45-3.9,7.05-5.98,10.53.73-1.88,1.48-3.76,2.25-5.64,11.42-27.13,31.5-53.93,55.74-70.84h0Z"/>
  <path class="cls-3" d="m145.85,229.77c-13.08,20.53-26.05,41.11-37.78,62.43-9.02,16.48-17.64,33.56-23.42,51.52,7.78-37.69,37.26-83.77,61.2-113.94h0Z"/>
  <path class="cls-3" d="m157.8,242.67c-13.96,27.34-28.4,54.93-35.07,85.13,1.82-28.9,18.38-61.77,35.07-85.13h0Z"/>
  <path class="cls-3" d="m39.96,336.37c-4.38.94-8.75-1.24-12.48-3.29-3.38-1.87-6.61-4.04-9.36-6.77-5.28-5.23-7.97-12.49-5-19.64,1.55-3.73,4.39-6.78,8.01-8.56,1.25-.61,1.2-2.61,0-3.24-8.22-4.33-14.16-12.22-16.42-21.2s-.51-20.33,6.9-26.88c4.2-3.72,10.24-5.32,15.63-3.6.76.24,1.74-.15,2.12-.86,1.62-3.04,3.48-5.95,5.64-8.64,1.04-1.29,2.14-2.53,3.29-3.73s2.31-2.48,3.72-3.32c2.47-1.48,5.17.07,6.52,2.32,1.74,2.9,1.39,6.64,1.19,9.87-.11,1.91,2.58,2.48,3.49.95,2.42-4.09,5.79-7.56,9.85-10.06,3.64-2.25,8.33-4.31,12.71-3.56,5,.86,5.99,5.6,5.79,9.98-.24,5.53-1.26,11.1-2.43,16.5-1.39,6.4-3.27,12.67-5.59,18.79-.86,2.26,2.77,3.23,3.62,1,2.32-6.12,4.21-12.4,5.59-18.79,1.29-5.93,2.47-12.16,2.59-18.25.1-5.37-1.82-10.8-7.38-12.55-4.98-1.57-10.53.27-14.96,2.59-5.39,2.84-9.93,7.22-13.03,12.45l3.49.95c.24-4.02.41-8.55-1.9-12.07-1.98-3.01-5.49-5.13-9.16-4.32-2,.44-3.64,1.81-5.09,3.18s-2.85,2.86-4.15,4.4c-2.71,3.21-5.08,6.69-7.05,10.39l2.12-.86c-5.48-1.74-11.57-.65-16.39,2.39s-8.33,8.14-10.18,13.61c-3.44,10.19-1.36,21.76,4.54,30.62,3.3,4.96,7.75,9.13,13.03,11.91v-3.24c-7.71,3.79-12.21,12.7-10.91,21.15,1.37,8.93,8.84,15.44,16.26,19.73,4.94,2.85,10.54,5.49,16.37,4.24,2.36-.51,1.36-4.12-1-3.62h0Z"/>
  <path class="cls-3" d="m55.92,390.6c-2.64-5.98-5.11-12.9-4.12-19.54.45-3.05,1.72-6.4,4.17-8.41.98-.81,2.3-1.47,3.6-1.17,1,.23,2.39,1.22,2.19,2.4-.39,2.35,2.85,3.33,3.62,1,1.68-5.16,5.72-9.72,10.83-11.7,1.77-.69,4.86-1.36,6.27.4.68.85.83,2.05,1.18,3.05.5,1.43,1.17,2.51,2.39,3.42.87.65,2.03.07,2.57-.67,2.23-3.09,5.69-5.92,9.66-6.08,3.48-.14,7.08,1.71,7.94,5.28,1.03,4.24-1.77,8.7-3.93,12.11-2.49,3.93-5.25,7.68-8.26,11.23-3.39,4-7.09,7.74-11.03,11.21-1.82,1.6.84,4.24,2.65,2.65,8.09-7.1,15.22-15.44,20.79-24.67,2.57-4.26,4.96-9.72,3.02-14.69-1.67-4.28-6.01-6.76-10.49-6.87-5.64-.14-10.44,3.58-13.59,7.94l2.57-.67c-.91-.68-1.05-2.57-1.43-3.55-.58-1.49-1.51-2.78-2.94-3.57-2.63-1.43-5.97-1.09-8.66-.02-6.26,2.5-11.07,7.81-13.15,14.2l3.62,1c.54-3.3-1.7-6.35-4.98-7.05s-6.5,1.17-8.53,3.71c-4.4,5.5-4.61,12.91-3.16,19.52.87,3.96,2.34,7.75,3.97,11.45.41.93,1.76,1.13,2.57.67.96-.55,1.08-1.64.67-2.57h0Z"/>
  <path class="cls-3" d="m136.99,345c-1.96-3.97-.72-8.68,1.09-12.46s4.27-7.34,7.04-10.49c5.5-6.26,12.51-11.27,20.31-14.23,2.41-.91,5.14-1.93,7.76-1.46,2.08.37,3.98,1.98,3.79,4.22-.17,2,2.54,2.34,3.49.95,5.47-8.02,13.16-14.36,21.95-18.44,4.32-2.01,8.94-3.41,13.63-4.19,1.95-.33,3.99-.65,5.95-.27,1.19.23,3.22.77,3.19,2.31-.02,1.22-1.24,2.24-2.06,3-1.09,1.02-2.22,1.99-3.38,2.92-2.54,2.06-5.24,3.9-8.04,5.58-1.15.69-1.29,2.59,0,3.24,2.81,1.41,5.73,2.84,7.92,5.16,1.87,1.98,3.24,5.14,2.1,7.82-1.91,4.48-8.47,4.49-12.54,4.43-2.12-.03-2.53,3.11-.5,3.68,3.73,1.04,8.37,2.36,10.7,5.73,2.62,3.78.55,8.99-2.18,12.13-6.26,7.2-16.45,8.38-25.4,8.11-6.9-.21-13.8-1.03-20.69-.31-1.01.1-1.88.79-1.88,1.88,0,.93.86,1.98,1.88,1.88,12.31-1.27,25.06,2.46,37.08-1.58,4.57-1.54,9.02-4.04,12.09-7.82,3.36-4.14,5.47-10.16,2.9-15.21s-8.5-7.01-13.5-8.41l-.5,3.68c5.92.09,13.68-.7,16.12-7.11,1.35-3.54.13-7.57-2.11-10.46-2.46-3.17-6.08-5.07-9.6-6.84v3.24c2.82-1.69,5.52-3.57,8.1-5.61,2.24-1.77,5.03-3.74,6.43-6.29,1.23-2.23,1.01-4.98-.9-6.76-1.75-1.63-4.3-2.2-6.62-2.3-2.53-.1-5.18.44-7.65.95-2.76.57-5.47,1.37-8.11,2.36-5.19,1.95-10.11,4.6-14.55,7.94-5.09,3.83-9.5,8.4-13.09,13.67l3.49.95c.21-2.49-1.12-4.77-3.06-6.24-2.2-1.67-4.97-2.05-7.66-1.68-5.03.7-10.07,3.2-14.39,5.79-8.44,5.05-15.78,12.49-20.32,21.26-2.74,5.31-4.33,11.57-1.56,17.19,1.07,2.16,4.3.27,3.24-1.89h0Z"/>
</svg>