<svg width="34" height="28" viewBox="0 0 34 28" fill="none" xmlns="http://www.w3.org/2000/svg">
<path d="M33.5608 4.12175C32.3417 4.67591 31.0275 5.04008 29.6658 5.21425C31.0592 4.37508 32.1358 3.04508 32.6425 1.44591C31.3283 2.23758 29.8717 2.79175 28.3358 3.10841C27.085 1.74675 25.3275 0.955078 23.3325 0.955078C19.6117 0.955078 16.5717 3.99508 16.5717 7.74758C16.5717 8.28591 16.635 8.80841 16.7458 9.29925C11.1092 9.01425 6.09 6.30675 2.74917 2.20591C2.16333 3.20341 1.83083 4.37508 1.83083 5.61008C1.83083 7.96925 3.01833 10.0592 4.855 11.2467C3.73083 11.2467 2.68583 10.9301 1.7675 10.4551V10.5026C1.7675 13.7959 4.11083 16.5509 7.21417 17.1684C6.21782 17.4411 5.17182 17.479 4.15833 17.2793C4.58838 18.629 5.4306 19.8101 6.56661 20.6564C7.70262 21.5027 9.07529 21.9718 10.4917 21.9976C8.09075 23.8983 5.11466 24.9257 2.0525 24.9109C1.51417 24.9109 0.975833 24.8793 0.4375 24.8159C3.44583 26.7476 7.02417 27.8718 10.8558 27.8718C23.3325 27.8718 30.1883 17.5168 30.1883 8.53925C30.1883 8.23841 30.1883 7.95341 30.1725 7.65258C31.5025 6.70258 32.6425 5.49925 33.5608 4.12175Z" fill="#49A37B"/>
</svg>
